<?xml version="1.0" standalone="no"?>
<!DOCTYPE svg PUBLIC "-//W3C//DTD SVG 20010904//EN"
 "http://www.w3.org/TR/2001/REC-SVG-20010904/DTD/svg10.dtd">
<svg version="1.0" xmlns="http://www.w3.org/2000/svg"
 width="1563.000000pt" height="1563.000000pt" viewBox="0 0 1563.000000 1563.000000"
 preserveAspectRatio="xMidYMid meet">

<g transform="translate(0.000000,1563.000000) scale(0.100000,-0.100000)"
fill="#000000" stroke="none">
<path d="M7295 15445 c-33 -8 -86 -14 -118 -14 -32 -1 -67 -6 -77 -11 -10 -6
-45 -14 -77 -20 -129 -21 -178 -32 -187 -41 -6 -5 -23 -9 -38 -9 -16 0 -45 -7
-65 -15 -19 -8 -44 -15 -54 -15 -10 0 -33 -6 -51 -14 -18 -8 -64 -24 -103 -36
-63 -19 -121 -41 -200 -75 -70 -30 -101 -43 -125 -53 -58 -22 -224 -110 -297
-155 -21 -13 -45 -27 -53 -31 -23 -11 -52 -29 -87 -53 -17 -13 -34 -23 -38
-23 -4 0 -24 -13 -45 -30 -21 -16 -41 -30 -44 -30 -4 0 -19 -11 -34 -25 -15
-14 -31 -25 -35 -25 -10 0 -174 -131 -228 -181 -19 -19 -62 -56 -95 -83 -79
-67 -157 -145 -234 -236 -35 -41 -73 -84 -84 -95 -12 -11 -44 -49 -71 -85 -27
-36 -60 -76 -72 -90 -13 -14 -23 -29 -23 -35 0 -6 -10 -22 -22 -35 -31 -34
-88 -119 -88 -129 0 -5 -6 -14 -14 -20 -8 -7 -21 -26 -30 -44 -9 -18 -21 -39
-26 -47 -83 -132 -260 -489 -260 -525 0 -8 -4 -16 -9 -19 -5 -3 -19 -38 -32
-78 -12 -40 -26 -77 -31 -82 -4 -6 -8 -19 -8 -30 0 -12 -7 -34 -15 -50 -8 -15
-15 -37 -15 -48 0 -11 -5 -29 -12 -41 -6 -12 -15 -40 -19 -62 -5 -22 -16 -69
-24 -105 -9 -36 -21 -93 -25 -127 -5 -34 -16 -76 -25 -93 l-16 -30 -1077 -1
c-1160 -1 -1219 -2 -1235 -18 -6 -6 -19 -11 -28 -11 -29 0 -117 -49 -177 -98
-80 -65 -126 -122 -166 -207 -10 -22 -22 -47 -26 -55 -4 -9 -11 -39 -15 -68
-4 -29 -11 -54 -16 -58 -12 -7 -12 -154 0 -154 5 0 11 -23 15 -51 4 -28 11
-58 15 -67 5 -10 21 -44 37 -77 37 -77 160 -203 234 -241 143 -73 163 -76 570
-83 l355 -6 5 -4380 c4 -3362 8 -4389 18 -4420 6 -22 12 -60 12 -85 0 -47 20
-149 60 -300 6 -25 14 -58 17 -75 3 -16 12 -39 19 -50 8 -11 14 -29 14 -42 0
-12 4 -24 9 -28 5 -3 13 -20 17 -37 3 -18 10 -39 15 -48 4 -8 16 -33 25 -55
51 -121 158 -318 206 -379 13 -16 26 -36 30 -45 3 -9 14 -25 25 -36 10 -12 29
-36 43 -55 40 -57 87 -109 213 -232 141 -139 229 -209 392 -315 118 -76 376
-213 401 -213 12 0 66 -21 106 -41 17 -9 58 -20 148 -41 25 -5 49 -14 54 -19
6 -5 24 -9 41 -9 18 0 54 -7 81 -15 27 -8 72 -15 99 -15 28 -1 77 -7 110 -15
90 -22 5877 -22 5975 0 36 8 89 14 118 15 29 0 62 5 72 10 10 6 45 14 77 19
51 9 104 21 208 51 36 10 89 29 130 46 17 6 41 16 55 22 91 37 305 149 357
188 17 13 35 24 38 24 9 0 85 53 155 109 318 250 535 516 700 857 33 67 60
127 60 133 0 5 6 22 14 38 28 57 46 104 46 123 0 10 5 22 10 25 6 3 10 16 10
28 0 12 7 35 15 51 8 15 15 41 15 57 0 17 7 46 15 66 8 19 15 53 15 74 0 21 6
50 13 66 9 22 13 950 17 4488 l5 4460 365 6 c201 3 383 10 405 16 72 17 119
37 185 76 127 76 197 162 266 325 25 62 24 295 -3 367 -65 177 -196 308 -378
379 -48 19 -92 20 -1204 25 l-1154 6 -14 60 c-8 33 -17 83 -21 110 -4 28 -11
56 -15 63 -5 6 -12 33 -17 60 -4 26 -16 72 -25 102 -9 30 -21 73 -26 95 -6 22
-14 44 -20 49 -5 6 -9 21 -9 35 0 15 -7 35 -15 45 -8 11 -15 29 -15 41 0 12
-4 25 -8 31 -5 5 -17 32 -27 59 -16 47 -28 74 -60 150 -31 71 -51 110 -57 113
-5 2 -8 12 -8 22 0 9 -7 23 -15 30 -8 7 -15 21 -15 31 0 10 -4 20 -9 24 -6 3
-16 18 -24 33 -31 61 -80 148 -93 163 -8 8 -14 19 -14 24 0 4 -11 23 -25 41
-14 18 -25 35 -25 38 0 7 -91 140 -100 146 -4 3 -16 19 -26 36 -11 17 -36 51
-57 75 -20 24 -53 64 -73 89 -71 89 -391 406 -469 465 -27 20 -67 52 -87 71
-20 19 -40 34 -43 34 -3 0 -38 24 -78 53 -39 29 -99 71 -132 92 -33 21 -71 45
-85 55 -14 9 -32 19 -40 23 -8 4 -37 21 -65 38 -27 16 -62 35 -77 40 -16 6
-28 15 -28 20 0 5 -5 9 -12 9 -6 0 -64 25 -127 56 -130 63 -156 75 -221 99
-25 9 -52 21 -61 25 -9 5 -33 12 -53 15 -20 4 -39 11 -42 16 -3 5 -15 9 -27 9
-12 0 -35 7 -51 15 -15 8 -37 15 -48 15 -11 0 -29 5 -41 12 -12 6 -40 15 -62
20 -118 26 -186 40 -236 48 -31 5 -68 14 -83 20 -15 5 -46 10 -69 10 -23 0
-74 7 -112 15 -96 20 -790 20 -880 0z m705 -1160 c63 -9 135 -21 160 -27 25
-6 65 -14 90 -19 135 -24 177 -35 248 -65 18 -8 39 -14 47 -14 7 0 28 -8 47
-17 59 -29 68 -33 79 -33 18 0 261 -120 296 -146 17 -13 36 -24 42 -24 10 0
168 -106 204 -137 12 -10 38 -29 57 -43 76 -52 289 -266 385 -385 72 -90 163
-220 199 -285 11 -19 22 -37 25 -40 3 -3 16 -25 29 -50 12 -25 27 -52 32 -60
5 -8 11 -22 14 -30 3 -8 10 -22 15 -30 18 -29 61 -131 61 -143 0 -7 7 -22 15
-33 8 -10 15 -29 15 -41 0 -12 4 -24 9 -28 5 -3 13 -20 16 -38 10 -47 35 -129
46 -149 5 -10 6 -24 3 -33 -6 -13 -252 -15 -2413 -13 l-2406 3 -3 27 c-2 15 3
42 11 60 9 18 17 44 20 58 6 28 25 86 38 112 5 10 9 23 9 29 0 6 7 27 16 47 8
21 21 51 28 67 8 17 28 59 46 95 19 36 40 80 49 98 8 17 19 32 23 32 4 0 8 4
8 10 0 23 156 258 218 329 13 14 40 46 60 71 80 98 277 279 397 363 44 32 93
67 109 80 16 12 34 24 40 26 6 2 18 9 26 16 8 7 56 34 105 60 50 25 97 50 105
55 75 42 227 106 280 117 14 3 34 12 45 19 11 8 31 14 45 14 14 0 30 4 36 10
5 5 32 15 59 20 28 6 82 18 120 26 39 8 111 19 160 24 50 6 106 14 125 19 59
15 384 12 510 -4z m3569 -3089 c8 -10 10 -1135 8 -4372 -3 -4573 -1 -4382 -43
-4482 -8 -18 -14 -42 -14 -53 0 -19 -31 -85 -92 -200 -34 -64 -129 -181 -208
-259 -108 -106 -282 -213 -405 -250 -22 -6 -53 -16 -70 -22 -93 -32 -179 -33
-3015 -33 -1559 0 -2869 4 -2910 9 -41 5 -87 15 -102 22 -15 8 -39 14 -53 14
-14 0 -33 4 -43 9 -9 6 -55 28 -102 50 -101 47 -176 96 -262 171 -59 51 -87
82 -182 203 -44 56 -146 251 -146 279 0 10 -4 26 -9 36 -5 9 -17 44 -27 77
-18 58 -19 185 -19 4420 0 2398 3 4368 7 4378 7 16 199 17 3841 17 3229 0
3836 -2 3846 -14z"/>
<path d="M8875 9504 c-197 -47 -353 -202 -397 -394 -9 -43 -13 -590 -15 -2485
-3 -2367 -3 -2432 16 -2505 26 -102 35 -124 81 -189 38 -53 146 -151 168 -151
5 0 15 -7 22 -15 7 -8 20 -15 30 -15 10 0 31 -7 46 -15 41 -21 271 -21 298 0
11 8 27 15 37 15 25 0 138 78 187 130 54 57 85 109 111 187 l21 62 0 2493 c-1
2142 -3 2497 -15 2518 -8 14 -14 33 -15 42 0 22 -53 111 -94 158 -62 73 -167
134 -282 164 -71 19 -118 19 -199 0z"/>
<path d="M6357 9484 c-3 -3 -24 -10 -47 -15 -52 -12 -139 -67 -194 -123 -45
-45 -116 -154 -116 -178 0 -8 -5 -19 -10 -24 -6 -6 -15 -48 -20 -95 -13 -112
-13 -4794 0 -4906 5 -45 13 -90 18 -100 6 -10 18 -36 28 -58 29 -61 80 -129
125 -166 54 -44 149 -95 191 -102 18 -3 59 -11 90 -17 43 -9 69 -9 105 0 26 6
66 15 88 19 171 35 336 226 359 416 8 62 8 4849 0 4925 -6 58 -7 60 -49 153
-50 110 -221 257 -299 257 -14 0 -28 5 -31 10 -7 11 -227 14 -238 4z"/>
</g>
</svg>
